%FSLAX26Y26*%
%MOIN*%
%IPPOS*%
%ADD10C,0.03543*%
%ADD11C,0.11811*%
%ADD12C,0.13780*%
%ADD13C,0.12598*%
%ADD14C,0.04724*%
%ADD15C,0.03937*%
%ADD16C,0.05906*%
%ADD17C,0.02362*%
%SRX1Y1I0.000000J0.000000*%
%LNdrill*%
%LPD*%
D10*
X140000Y2700000D03*
X400000D03*
X660000D03*
X899950Y676182D03*
Y776182D03*
Y876182D03*
Y976182D03*
Y1076182D03*
Y1176182D03*
Y1276182D03*
Y1376182D03*
Y1476182D03*
Y1576182D03*
Y1676182D03*
Y1776182D03*
Y1876182D03*
Y1976182D03*
Y2076182D03*
Y2176182D03*
Y2276182D03*
Y2376182D03*
Y2476182D03*
Y2576182D03*
X903938Y2780000D03*
X999950Y676182D03*
Y776182D03*
Y876182D03*
Y976182D03*
Y1076182D03*
Y1176182D03*
Y1276182D03*
Y1376182D03*
Y1476182D03*
Y1576182D03*
Y1676182D03*
Y1776182D03*
Y1876182D03*
Y1976182D03*
Y2076182D03*
Y2176182D03*
Y2276182D03*
Y2376182D03*
Y2476182D03*
Y2576182D03*
X1096064Y2780000D03*
X1180000Y2020000D03*
X1400000Y175046D03*
Y275046D03*
X1500000Y175046D03*
Y275046D03*
X1600000Y175046D03*
Y275046D03*
X1640000Y2020000D03*
X1700000Y175046D03*
Y275046D03*
X1740000Y2020000D03*
X1800000Y175046D03*
Y275046D03*
X1900000Y175046D03*
Y275046D03*
X2000000Y175046D03*
Y275046D03*
X2100000Y175046D03*
Y275046D03*
X2200000Y175046D03*
Y275046D03*
X2300000Y175046D03*
Y275046D03*
Y2065000D03*
Y2215000D03*
Y2425000D03*
Y2575000D03*
X2400000Y175046D03*
Y275046D03*
X2500000Y175046D03*
Y275046D03*
X2600000Y175046D03*
Y275046D03*
X2700000Y175046D03*
Y275046D03*
X2760000Y1160000D03*
Y1260000D03*
Y1360000D03*
Y1460000D03*
Y1560000D03*
Y1660000D03*
Y1760000D03*
Y1860000D03*
Y1960000D03*
Y2060000D03*
Y2160000D03*
Y2260000D03*
Y2360000D03*
X2800000Y175046D03*
Y275046D03*
X2860000Y1160000D03*
Y1260000D03*
Y1360000D03*
Y1460000D03*
Y1560000D03*
Y1660000D03*
Y1760000D03*
Y1860000D03*
Y1960000D03*
Y2060000D03*
Y2160000D03*
Y2260000D03*
Y2360000D03*
X2900000Y175046D03*
Y275046D03*
X3000000Y175046D03*
Y275046D03*
X3100000Y175046D03*
Y275046D03*
Y1100000D03*
X3200000Y175046D03*
Y275046D03*
Y1100000D03*
X3300000Y175046D03*
Y275046D03*
Y1100000D03*
Y1420000D03*
Y1520000D03*
Y1820000D03*
Y1920000D03*
Y2300000D03*
Y2400000D03*
X3400000Y1420000D03*
Y1520000D03*
Y1820000D03*
Y1920000D03*
Y2300000D03*
Y2400000D03*
X3446930Y245670D03*
Y324410D03*
Y403150D03*
Y481890D03*
Y560630D03*
Y639370D03*
Y718110D03*
Y796850D03*
Y875590D03*
Y954330D03*
X3500000Y1420000D03*
Y1520000D03*
Y1820000D03*
Y1920000D03*
Y2300000D03*
Y2400000D03*
X3600000Y1420000D03*
Y1520000D03*
Y1820000D03*
Y1920000D03*
Y2300000D03*
Y2400000D03*
X3700000Y175046D03*
Y275046D03*
Y1420000D03*
Y1520000D03*
Y1820000D03*
Y1920000D03*
Y2300000D03*
Y2400000D03*
Y2975050D03*
Y3075050D03*
X3800000Y175046D03*
Y275046D03*
Y2975050D03*
Y3075050D03*
X3820000Y2720000D03*
X3900000Y175046D03*
Y275046D03*
Y2975050D03*
Y3075050D03*
X4000000Y175046D03*
Y275046D03*
Y2975050D03*
Y3075050D03*
X4100000Y175046D03*
Y275046D03*
Y2975050D03*
Y3075050D03*
X4200000Y1500000D03*
Y1600000D03*
Y1700000D03*
Y1800000D03*
Y2200000D03*
Y2300000D03*
Y2400000D03*
Y2500000D03*
X4313070Y245670D03*
Y324410D03*
Y403150D03*
Y481890D03*
Y560630D03*
Y639370D03*
Y718110D03*
Y796850D03*
Y875590D03*
Y954330D03*
X4499962Y675000D03*
Y775000D03*
Y875000D03*
Y975000D03*
Y1075000D03*
Y1175000D03*
Y1275000D03*
Y1375000D03*
Y1475000D03*
Y1575000D03*
Y1675000D03*
Y1775000D03*
Y1875000D03*
Y1975000D03*
Y2075000D03*
Y2175000D03*
Y2275000D03*
Y2375000D03*
Y2475000D03*
Y2575000D03*
X4599962Y675000D03*
Y775000D03*
Y875000D03*
Y975000D03*
Y1075000D03*
Y1175000D03*
Y1275000D03*
Y1375000D03*
Y1475000D03*
Y1575000D03*
Y1675000D03*
Y1775000D03*
Y1875000D03*
Y1975000D03*
Y2075000D03*
Y2175000D03*
Y2275000D03*
Y2375000D03*
Y2475000D03*
Y2575000D03*
X4900000Y2220000D03*
Y2320000D03*
Y2420000D03*
Y2940000D03*
Y3040000D03*
Y3140000D03*
X5200000Y2260000D03*
Y2360000D03*
Y3000000D03*
Y3100000D03*
X5300000Y2260000D03*
Y2360000D03*
Y3000000D03*
Y3100000D03*
X5400000Y2260000D03*
Y2360000D03*
Y3000000D03*
Y3100000D03*
X5500000Y2260000D03*
Y2360000D03*
Y3000000D03*
Y3100000D03*
X5600000Y2260000D03*
Y2360000D03*
Y3000000D03*
Y3100000D03*
X5700000Y2260000D03*
Y2360000D03*
Y3000000D03*
Y3100000D03*
X5800000Y2260000D03*
Y2360000D03*
Y3000000D03*
Y3100000D03*
X5900000Y2260000D03*
Y2360000D03*
Y3000000D03*
Y3100000D03*
X6000000Y2260000D03*
Y2360000D03*
Y3000000D03*
Y3100000D03*
X6100000Y2260000D03*
Y2360000D03*
Y3000000D03*
Y3100000D03*
X1970000Y2910000D03*
Y3010000D03*
Y3110000D03*
Y3210000D03*
X2270000Y2910000D03*
Y3010000D03*
Y3110000D03*
Y3210000D03*
D11*
X277952Y3056850D03*
X400000Y2860000D03*
D12*
X522048Y3056850D03*
D13*
X875000Y150000D03*
Y3100000D03*
X2423622Y486772D03*
Y1822204D03*
X4625000Y150000D03*
Y3100000D03*
X6005984Y528070D03*
Y1511930D03*
D14*
X1200000Y3020000D03*
X1400000D03*
X1600000D03*
X1800000D03*
D15*
X1500000Y1400000D03*
Y1800000D03*
X5950078Y801890D03*
Y910944D03*
Y1020000D03*
Y1129056D03*
Y1238110D03*
X6061890Y856418D03*
Y965472D03*
Y1074528D03*
Y1183582D03*
D16*
X2431024Y2991024D03*
X2450708Y2735118D03*
X2620000Y3180000D03*
X2702678Y2892598D03*
X2816850Y2853228D03*
X3011024Y2991024D03*
X3030708Y2735118D03*
X3200000Y3180000D03*
X3282678Y2892598D03*
X3396850Y2853228D03*
D17*
X520000Y2250000D03*
X819000Y2231000D03*
X1119000Y813000D03*
X1130550Y1374550D03*
X1173000Y410000D03*
X1190000Y1552000D03*
X1193000Y2366000D03*
X1216000Y2300000D03*
X1226000Y2180000D03*
X1233000Y1880000D03*
X1268000Y359000D03*
X1357000Y1929000D03*
X1517000Y893000D03*
X1537000Y775000D03*
X1569236Y1288658D03*
X1570000Y1155000D03*
X1629000Y1248000D03*
X1635000Y2105000D03*
X1650000Y1165000D03*
X1670000Y485000D03*
X1693000Y2920000D03*
X1705000Y2505000D03*
X1768000Y2114000D03*
X1773000Y1075000D03*
X1804000Y79000D03*
X1904000Y1133000D03*
X1910000Y2258000D03*
X1926000Y995000D03*
X1940000Y835000D03*
X1941000Y660000D03*
X1950000Y339000D03*
X1961000Y729000D03*
X2045000Y2570000D03*
X2053000Y363000D03*
X2095000Y2182992D03*
X2110000Y700000D03*
X2163048Y2861048D03*
X2173000Y609000D03*
X2181000Y716000D03*
X2195000Y900000D03*
Y2405000D03*
X2220740Y2281612D03*
X2270000Y1180000D03*
X2290000Y1876000D03*
X2296000Y451000D03*
X2340000Y598726D03*
Y927000D03*
X2366000Y2468000D03*
X2371000Y90000D03*
X2390000Y1200000D03*
X2405000Y2330000D03*
X2415000Y1380000D03*
X2464000Y1042000D03*
X2477000Y2135000D03*
X2478000Y2490000D03*
X2555000Y2141000D03*
X2653000Y1218000D03*
X2675000Y2214860D03*
X2679000Y974000D03*
X2777000Y90000D03*
X2808000Y646000D03*
X2924000Y1810000D03*
X2957000Y2257000D03*
X3022000Y1825000D03*
X3042000Y909000D03*
X3060000Y833000D03*
X3142000Y1967000D03*
X3150000Y1016000D03*
X3195000Y1771000D03*
X3196000Y1867000D03*
X3247000Y903000D03*
X3260000Y820000D03*
X3287000Y1005000D03*
X3348000Y2053000D03*
X3350000Y1335000D03*
X3385000Y160000D03*
X3465000Y135000D03*
X3485000Y1025000D03*
X3500000Y1296000D03*
X3533000Y138000D03*
X3540000Y560000D03*
X3554000Y1095000D03*
X3693000Y606000D03*
X3695000Y490000D03*
X3724000Y1201000D03*
X3747000Y2654000D03*
X3785000Y1980000D03*
X3891000Y1486000D03*
X3930000Y1010000D03*
X3935000Y1370000D03*
X3939000Y1775000D03*
X4010000Y982464D03*
X4042000Y63000D03*
X4109000Y2138000D03*
X4136966Y2765000D03*
X4180000Y1102000D03*
X4295000Y2696000D03*
X4313000Y2175000D03*
X4320000Y1465000D03*
X4333000Y1998000D03*
X4373000Y1683000D03*
X4396000Y1125000D03*
Y1185000D03*
X4402000Y1325000D03*
X4435000Y1820000D03*
X4666000Y539000D03*
X4682000Y2061000D03*
X4688000Y2770000D03*
X4700000Y940000D03*
X4765000Y2120000D03*
X4771000Y2429000D03*
X4775000Y2335000D03*
X4828000Y1754000D03*
X4868000Y2099000D03*
X4890000Y758000D03*
Y1480000D03*
X4905000Y512008D03*
X4985000Y2733000D03*
X5025000Y512008D03*
X5030000Y1928000D03*
X5085000Y2480000D03*
X5145000Y512008D03*
Y740000D03*
X5155000Y2660000D03*
X5165000Y2172000D03*
X5201000Y1992000D03*
X5225000Y2885000D03*
X5265000Y512008D03*
Y740000D03*
X5280000Y1495000D03*
X5300000Y1615000D03*
X5310000Y2863000D03*
X5340000Y1925000D03*
X5355000Y645000D03*
Y1550000D03*
X5415000Y2175000D03*
X5434000Y1524000D03*
X5440000Y2468000D03*
X5450000Y2880000D03*
X5505000Y1540000D03*
X5515000Y1345000D03*
X5521000Y2680000D03*
X5565000Y2900000D03*
X5580000Y1530000D03*
X5700000Y1139000D03*
X5703000Y766000D03*
X5705000Y2900000D03*
X5706000Y1246000D03*
X5708000Y2497000D03*
X5713996Y591004D03*
X5725000Y1910000D03*
X5788000Y1683000D03*
X5795000Y2175000D03*
X5800000Y2465000D03*
X5840000Y1408000D03*
X5856000Y1195000D03*
X5872000Y1671000D03*
X5905553Y2490849D03*
X5909000Y2907000D03*
X5971000Y2439000D03*
X6030000Y770000D03*
X6165000Y2193000D03*
X6210000Y2475000D03*
X6245000Y2645000D03*
X6253000Y874000D03*
X660000Y2253070D03*
X2821000Y423000D03*
%LPD*%
M02*