%FSLAX26Y26*%
%MOMM*%
%ADD10C,0.900000*%
%ADD11C,3.500000*%
%ADD12C,0.500000*%
%SRX1Y1I0.000000J0.000000*%
G04 layer name: drill*
%LPD*%
D10*
X78579980Y60799980D03*
X81119980D03*
X83659980Y12539980D03*
Y60799980D03*
X86199980Y12539980D03*
Y60799980D03*
X88739980Y12539980D03*
Y60799980D03*
X88900000Y5080000D03*
Y7620000D03*
X91279980Y12539980D03*
Y60799980D03*
X91440000Y5080000D03*
Y7620000D03*
X93819980Y12539980D03*
Y60799980D03*
X93980000Y5080000D03*
Y7620000D03*
X96359980Y12539980D03*
Y60799980D03*
X96520000Y5080000D03*
Y7620000D03*
Y22860000D03*
Y25400000D03*
Y27940000D03*
Y30480000D03*
Y43180000D03*
Y45720000D03*
Y48260000D03*
Y50800000D03*
X98899980Y12539980D03*
X99060000Y5080000D03*
Y7620000D03*
X101439980Y12539980D03*
X103979980Y17619980D03*
Y20159980D03*
Y22699980D03*
Y25239980D03*
Y27779980D03*
Y30319980D03*
Y32859980D03*
Y35399980D03*
Y37939980D03*
Y40479980D03*
Y43019980D03*
Y45559980D03*
Y48099980D03*
Y50639980D03*
Y53179980D03*
Y55719980D03*
Y58259980D03*
Y60799980D03*
X106519980Y17619980D03*
Y20159980D03*
Y22699980D03*
Y25239980D03*
Y27779980D03*
Y30319980D03*
Y32859980D03*
Y35399980D03*
Y37939980D03*
Y40479980D03*
Y43019980D03*
Y45559980D03*
Y48099980D03*
Y50639980D03*
Y53179980D03*
Y55719980D03*
Y58259980D03*
Y60799980D03*
X116840000Y7112000D03*
Y9652000D03*
Y12192000D03*
Y14732000D03*
Y17272000D03*
Y19812000D03*
Y22352000D03*
Y24892000D03*
Y27432000D03*
Y29972000D03*
Y41656000D03*
Y44196000D03*
Y46736000D03*
Y49276000D03*
Y51816000D03*
Y54356000D03*
Y56896000D03*
Y59436000D03*
Y61976000D03*
Y64516000D03*
X119380000Y7112000D03*
Y9652000D03*
Y12192000D03*
Y14732000D03*
Y17272000D03*
Y19812000D03*
Y22352000D03*
Y24892000D03*
Y27432000D03*
Y29972000D03*
Y41656000D03*
Y44196000D03*
Y46736000D03*
Y49276000D03*
Y51816000D03*
Y54356000D03*
Y56896000D03*
Y59436000D03*
Y61976000D03*
Y64516000D03*
D11*
X100169980Y60799980D03*
X106519980Y12539980D03*
D12*
X99847400Y15036800D03*
X102184200Y10109200D03*
%LPD*%
M02*