%FSLAX26Y26*%
%MOIN*%
%IPPOS*%
%ADD10C,0.035433*%
%ADD11C,0.118110*%
%ADD12C,0.137795*%
%ADD13C,0.047244*%
%ADD14C,0.125984*%
%ADD15C,0.023622*%
%SRX1Y1I0.000000J0.000000*%
G04 layer name: drill*
%LPD*%
D10*
X140000Y2700000D03*
X400000D03*
X660000D03*
X899950Y676182D03*
Y776182D03*
Y876182D03*
Y976182D03*
Y1076182D03*
Y1176182D03*
Y1276182D03*
Y1376182D03*
Y1476182D03*
Y1576182D03*
Y1676182D03*
Y1776182D03*
Y1876182D03*
Y1976182D03*
Y2076182D03*
Y2176182D03*
Y2276182D03*
Y2376182D03*
Y2476182D03*
Y2576182D03*
X920000Y2700000D03*
X999950Y676182D03*
Y776182D03*
Y876182D03*
Y976182D03*
Y1076182D03*
Y1176182D03*
Y1276182D03*
Y1376182D03*
Y1476182D03*
Y1576182D03*
Y1676182D03*
Y1776182D03*
Y1876182D03*
Y1976182D03*
Y2076182D03*
Y2176182D03*
Y2276182D03*
Y2376182D03*
Y2476182D03*
Y2576182D03*
X1180000Y2020000D03*
X1400000Y175046D03*
Y275046D03*
X1500000Y175046D03*
Y275046D03*
X1600000Y175046D03*
Y275046D03*
X1640000Y1980000D03*
X1700000Y175046D03*
Y275046D03*
X1740000Y1980000D03*
X1800000Y175046D03*
Y275046D03*
X1860000Y2363938D03*
Y2556064D03*
X1900000Y175046D03*
Y275046D03*
X2000000Y175046D03*
Y275046D03*
X2100000Y175046D03*
Y275046D03*
X2145000Y2100000D03*
Y2480000D03*
X2200000Y175046D03*
Y275046D03*
X2295000Y2100000D03*
Y2480000D03*
X2300000Y175046D03*
Y275046D03*
X2400000Y175046D03*
Y275046D03*
X2500000Y175046D03*
Y275046D03*
X2600000Y175046D03*
Y275046D03*
X2700000Y175046D03*
Y275046D03*
X2740000Y820000D03*
Y920000D03*
Y1020000D03*
Y1120000D03*
Y1220000D03*
Y1320000D03*
Y1420000D03*
Y1520000D03*
Y1620000D03*
Y1720000D03*
Y1820000D03*
Y1920000D03*
Y2020000D03*
X2800000Y175046D03*
Y275046D03*
X2840000Y820000D03*
Y920000D03*
Y1020000D03*
Y1120000D03*
Y1220000D03*
Y1320000D03*
Y1420000D03*
Y1520000D03*
Y1620000D03*
Y1720000D03*
Y1820000D03*
Y1920000D03*
Y2020000D03*
X2900000Y175046D03*
Y275046D03*
X3000000Y175046D03*
Y275046D03*
X3100000Y175046D03*
Y275046D03*
X3200000Y175046D03*
Y275046D03*
X3260000Y1100000D03*
Y1200000D03*
Y1300000D03*
Y1400000D03*
Y1800000D03*
Y1900000D03*
Y2000000D03*
Y2100000D03*
X3300000Y175046D03*
Y275046D03*
Y2460000D03*
Y2560000D03*
Y2660000D03*
X3496930Y540670D03*
Y619410D03*
Y698150D03*
Y776890D03*
Y855630D03*
Y934370D03*
Y1013110D03*
Y1091850D03*
Y1170590D03*
Y1249330D03*
X3700000Y175046D03*
Y275046D03*
Y2975050D03*
Y3075050D03*
X3760000Y1860000D03*
Y1960000D03*
Y2500000D03*
Y2600000D03*
X3800000Y175046D03*
Y275046D03*
Y2975050D03*
Y3075050D03*
X3860000Y1860000D03*
Y1960000D03*
Y2500000D03*
Y2600000D03*
X3900000Y175046D03*
Y275046D03*
Y2975050D03*
Y3075050D03*
X3960000Y1860000D03*
Y1960000D03*
Y2500000D03*
Y2600000D03*
X4000000Y175046D03*
Y275046D03*
Y2975050D03*
Y3075050D03*
X4060000Y1860000D03*
Y1960000D03*
Y2500000D03*
Y2600000D03*
X4100000Y175046D03*
Y275046D03*
Y2975050D03*
Y3075050D03*
X4160000Y1860000D03*
Y1960000D03*
Y2500000D03*
Y2600000D03*
X4363070Y540670D03*
Y619410D03*
Y698150D03*
Y776890D03*
Y855630D03*
Y934370D03*
Y1013110D03*
Y1091850D03*
Y1170590D03*
Y1249330D03*
X4499962Y675000D03*
Y775000D03*
Y875000D03*
Y975000D03*
Y1075000D03*
Y1175000D03*
Y1275000D03*
Y1375000D03*
Y1475000D03*
Y1575000D03*
Y1675000D03*
Y1775000D03*
Y1875000D03*
Y1975000D03*
Y2075000D03*
Y2175000D03*
Y2275000D03*
Y2375000D03*
Y2475000D03*
Y2575000D03*
X4599962Y675000D03*
Y775000D03*
Y875000D03*
Y975000D03*
Y1075000D03*
Y1175000D03*
Y1275000D03*
Y1375000D03*
Y1475000D03*
Y1575000D03*
Y1675000D03*
Y1775000D03*
Y1875000D03*
Y1975000D03*
Y2075000D03*
Y2175000D03*
Y2275000D03*
Y2375000D03*
Y2475000D03*
Y2575000D03*
X4860000Y1520000D03*
Y1620000D03*
X4900000Y2220000D03*
Y2320000D03*
Y2420000D03*
Y2940000D03*
Y3040000D03*
Y3140000D03*
X4960000Y1520000D03*
Y1620000D03*
X5060000Y1520000D03*
Y1620000D03*
X5160000Y1520000D03*
Y1620000D03*
X5200000Y2260000D03*
Y2360000D03*
Y3000000D03*
Y3100000D03*
X5260000Y1520000D03*
Y1620000D03*
X5300000Y2260000D03*
Y2360000D03*
Y3000000D03*
Y3100000D03*
X5400000Y2260000D03*
Y2360000D03*
Y3000000D03*
Y3100000D03*
X5500000Y2260000D03*
Y2360000D03*
Y3000000D03*
Y3100000D03*
X5600000Y2260000D03*
Y2360000D03*
Y3000000D03*
Y3100000D03*
X5700000Y1520000D03*
Y1620000D03*
Y2260000D03*
Y2360000D03*
Y3000000D03*
Y3100000D03*
X5800000Y1520000D03*
Y1620000D03*
Y2260000D03*
Y2360000D03*
Y3000000D03*
Y3100000D03*
X5900000Y1520000D03*
Y1620000D03*
Y2260000D03*
Y2360000D03*
Y3000000D03*
Y3100000D03*
X6000000Y1520000D03*
Y1620000D03*
Y2260000D03*
Y2360000D03*
Y3000000D03*
Y3100000D03*
X6100000Y1520000D03*
Y1620000D03*
Y2260000D03*
Y2360000D03*
Y3000000D03*
Y3100000D03*
X2670000Y2390000D03*
Y2690000D03*
X2770000Y2390000D03*
Y2690000D03*
X2870000Y2390000D03*
Y2690000D03*
X2970000Y2390000D03*
Y2690000D03*
X1500000Y1400000D03*
Y1800000D03*
X2345000Y2980000D03*
X2390000Y2880000D03*
X2435000Y2980000D03*
X2480000Y2880000D03*
Y3080000D03*
X2525000Y2980000D03*
X2570000Y2880000D03*
Y3080000D03*
X2615000Y2980000D03*
X2660000Y2880000D03*
Y3080000D03*
X2705000Y2980000D03*
X2750000Y2880000D03*
Y3080000D03*
X2390000D03*
X5930078Y401890D03*
Y510944D03*
Y620000D03*
Y729056D03*
Y838110D03*
X6041890Y456418D03*
Y565472D03*
Y674528D03*
Y783582D03*
X4840000Y480000D03*
Y1080000D03*
X4940000Y480000D03*
Y1080000D03*
X5040000Y480000D03*
Y1080000D03*
X5140000Y480000D03*
Y1080000D03*
X5240000Y480000D03*
Y1080000D03*
D11*
X277952Y3056850D03*
X400000Y2860000D03*
D12*
X522048Y3056850D03*
D13*
X1200000Y3020000D03*
X1400000D03*
X1600000D03*
X1800000D03*
D14*
X2068000Y2980000D03*
X3052000D03*
X5985984Y128070D03*
Y1111930D03*
D15*
X356000Y2602000D03*
X504000Y2589000D03*
X539000Y2912000D03*
X660000Y2099000D03*
X684000Y2522000D03*
X688000Y211000D03*
X704000Y2854000D03*
X752000Y2700000D03*
X799000Y1204000D03*
Y1726000D03*
X800000Y1625000D03*
X1083000Y633000D03*
X1087000Y2064000D03*
X1095000Y1933000D03*
X1103000Y460000D03*
X1119000Y715000D03*
X1121978Y538740D03*
X1124000Y2513000D03*
X1146000Y2365000D03*
X1151000Y1261000D03*
X1175000Y2430000D03*
X1200000Y1641260D03*
X1260000Y2034000D03*
X1270000Y1942000D03*
X1305000Y500000D03*
X1307000Y1132000D03*
X1340000Y2020000D03*
X1426000Y2321000D03*
X1495000Y3110000D03*
X1507000Y615000D03*
X1521000Y540000D03*
X1540000Y855000D03*
X1547000Y2388000D03*
X1557000Y1222000D03*
X1586000Y445000D03*
X1605000Y1025000D03*
X1614000Y1179000D03*
X1801000Y1382000D03*
X1981000Y624978D03*
Y755000D03*
X1997000Y1316000D03*
X2020000Y1159000D03*
X2027000Y1423000D03*
X2051000Y2254000D03*
X2059000Y586000D03*
X2100000Y1430000D03*
X2111000Y1755000D03*
X2120000Y1179000D03*
X2175566Y631000D03*
X2185000Y1249000D03*
X2233500Y1199500D03*
X2250000Y334000D03*
X2264000Y2891000D03*
X2270000Y755000D03*
X2288000Y592000D03*
X2323000Y939000D03*
X2326000Y1508000D03*
X2380000Y2780000D03*
X2411000Y1618000D03*
X2414000Y2323000D03*
X2431000Y906000D03*
X2467000Y2145000D03*
X2558000Y828000D03*
X2564000Y1368000D03*
X2656000Y1306000D03*
X2657000Y995000D03*
X2661000Y1995000D03*
X2676000Y871000D03*
X2690000Y554000D03*
X2851000Y730000D03*
X2869000Y443000D03*
X2870000Y2880000D03*
X2884000Y2112000D03*
X2931000Y930000D03*
X2939000Y837000D03*
X2955000Y1075000D03*
X3030000Y1117000D03*
Y1284582D03*
X3040000Y630000D03*
X3050000Y999636D03*
Y1184000D03*
X3054008Y1767000D03*
X3057000Y2487000D03*
X3111000Y433000D03*
X3116000Y2564000D03*
X3138000Y739000D03*
X3152000Y2246000D03*
X3174000Y1190000D03*
X3196000Y946000D03*
X3197918Y2338918D03*
X3212000Y1687000D03*
X3218000Y2699000D03*
X3292000Y1725978D03*
X3300000Y648000D03*
X3381000Y1356224D03*
X3402000Y1435000D03*
Y1691000D03*
X3420000Y2093000D03*
X3429000Y136000D03*
X3439000Y2348000D03*
X3484000Y2654000D03*
X3496000Y1949000D03*
X3502000Y1514000D03*
X3520000Y142000D03*
X3536000Y238000D03*
X3538000Y1352000D03*
X3553000Y2140000D03*
X3575952Y2680000D03*
X3576000Y3131000D03*
X3582000Y327000D03*
Y640000D03*
X3604000Y244000D03*
X3609000Y133000D03*
X3618000Y1326000D03*
X3643000Y499000D03*
X3654000Y2590000D03*
X3655000Y2675000D03*
X3673000Y1940000D03*
X3700000Y1783188D03*
X3717000Y2246000D03*
X3727000Y523000D03*
X3736000Y2387000D03*
X3738000Y2106000D03*
X3775000Y1569000D03*
X3805000Y1361000D03*
X3811000Y1769000D03*
X3836000Y339000D03*
X3907000Y1493798D03*
X3945000Y596000D03*
X3969000Y2230000D03*
X3970000Y1769000D03*
X3984000Y1126000D03*
X3991000Y1236000D03*
X4046000Y471000D03*
X4106000Y1047000D03*
Y1153594D03*
X4109000Y1507000D03*
X4110000Y1792000D03*
X4124978Y472022D03*
X4148000Y1370000D03*
X4158000Y2273000D03*
X4185000Y231000D03*
X4210000Y2774000D03*
X4231000Y1172000D03*
X4253000Y2305000D03*
X4270000Y1849000D03*
X4277000Y1098000D03*
X4283000Y1333000D03*
X4303000Y1964000D03*
X4308000Y2772000D03*
X4356000Y1372000D03*
X4390000Y1458000D03*
X4426000Y1367000D03*
X4428000Y21000D03*
X4555000Y2870000D03*
X4562000Y2655000D03*
X4647000Y2807000D03*
X4695000Y2193000D03*
X4704644Y2884644D03*
X4731024Y2021616D03*
X4744008Y857008D03*
X4748000Y1492000D03*
X4750000Y343000D03*
Y598000D03*
X4769000Y1236000D03*
X4770000Y2094000D03*
Y2370000D03*
X4829000Y1817000D03*
X5035000Y1910000D03*
X5050000Y2216000D03*
Y2468000D03*
X5096000Y1319000D03*
X5100000Y2626890D03*
X5103000Y1914000D03*
X5211000Y2125000D03*
X5220202Y1407000D03*
X5249444Y1164000D03*
X5286000Y81000D03*
X5302000Y362000D03*
X5308888Y1393000D03*
X5312000Y504000D03*
X5337000Y1928000D03*
X5341000Y162000D03*
X5350000Y1720000D03*
X5365000Y830000D03*
X5400000Y2160000D03*
X5417000Y1744000D03*
X5447000Y827000D03*
X5464000Y1168000D03*
X5480000Y351000D03*
X5492000Y2774000D03*
X5495000Y2171000D03*
X5510000Y2880000D03*
X5544000Y2642000D03*
X5547000Y969000D03*
X5549000Y59000D03*
X5587000Y1931000D03*
X5600000Y915000D03*
X5616000Y1575000D03*
X5622000Y685000D03*
X5659000Y1107000D03*
X5699000Y1989000D03*
X5708000Y2099000D03*
X5725000Y2905000D03*
X5738000Y953000D03*
X5739000Y2470000D03*
X5759000Y1134000D03*
X5760000Y2147000D03*
X5763000Y368000D03*
X5819000Y1080000D03*
X5830000Y2903000D03*
X5900000Y2658000D03*
X5905000Y1353000D03*
X5920000Y1931000D03*
X5925000Y2466000D03*
X5994000Y1354000D03*
X6035000Y325000D03*
X6039000Y2175000D03*
X6042000Y1271000D03*
X6048000Y2457000D03*
X6072000Y1927000D03*
X6114000Y1271000D03*
X6137000Y2151000D03*
X6163000Y1354000D03*
X6169000Y2484000D03*
X6181000Y2901000D03*
X6209000Y1271000D03*
X6239000Y1420000D03*
X6264000Y253000D03*
X6265000Y2675000D03*
%LPD*%
M02*