%FSLAX26Y26*%
%MOIN*%
%IPPOS*%
%ADD10C,0.019685*%
%ADD11C,0.027559*%
%ADD12C,0.035433*%
%ADD13C,0.039370*%
%ADD14C,0.047244*%
%ADD15C,0.118110*%
%ADD16C,0.125984*%
%SRX1Y1I0.000000J0.000000*%
G04 layer name: drill*
%LPD*%
D10*
X1038132Y3202132D03*
X1121000Y2286000D03*
X1246000Y1120000D03*
X1395000Y997000D03*
X1415000Y915000D03*
X1501000Y2320000D03*
X1532000Y771000D03*
X1576000Y3628000D03*
X1595000Y1405000D03*
Y1485000D03*
X1604000Y2598000D03*
Y2866000D03*
X1637000Y3146000D03*
X1692000Y1421000D03*
X1697000Y2280000D03*
Y2364000D03*
X1704000Y2652000D03*
X1732238Y2419000D03*
X1755000Y3515000D03*
X1793000Y2929000D03*
X1874500Y2945500D03*
X1880000Y1170000D03*
X1896000Y796000D03*
X1900040Y1530040D03*
X2001000Y797000D03*
X2006000Y2928000D03*
Y3126000D03*
X2064000Y795000D03*
X2148446Y816000D03*
X2177762Y900000D03*
X2250000Y1470000D03*
X2260000Y1915000D03*
X2310000Y2307008D03*
X2315000Y1420000D03*
X2325000Y2815000D03*
X2343000Y3543000D03*
X2351000Y1494000D03*
X2354238Y1648238D03*
X2355000Y1710000D03*
X2417008Y2200000D03*
X2424798Y1770000D03*
X2437000Y2965000D03*
X2445000Y1950000D03*
X2462000Y1009000D03*
Y1446000D03*
X2464000Y2518000D03*
X2477234Y2703234D03*
X2520000Y1260000D03*
X2539000Y800000D03*
X2604223Y1469223D03*
X2661008Y2070000D03*
X2691000Y1600000D03*
X2757000Y2955000D03*
X2813000Y2571000D03*
X2840000Y1055000D03*
X2848000Y619000D03*
X2950000Y2824000D03*
X2989912Y2542912D03*
X3244000Y619000D03*
X3255000Y2584000D03*
X3298000Y3286000D03*
X3319000Y1713000D03*
X3390000Y3605000D03*
X3499000Y1601000D03*
X3509000Y1530000D03*
X3548000Y619000D03*
X3686000Y1722000D03*
X3693700Y998000D03*
X3755000Y2543000D03*
X3814000Y2234000D03*
X3815000Y2575000D03*
X3919000Y2674000D03*
X3966000Y583000D03*
X3970000Y2497000D03*
X3984000Y2404000D03*
X4013000Y1855000D03*
X4018762Y2214920D03*
X4030000Y1775000D03*
X4054000Y2101000D03*
X4089474Y2290000D03*
X4095000Y1679034D03*
X4115000Y2463000D03*
X4121000Y2631000D03*
X4128000Y1811000D03*
X4135000Y872000D03*
X4146000Y2167000D03*
X4154000Y1511000D03*
X4170000Y2070000D03*
Y2895000D03*
X4193700Y859000D03*
X4270000Y1502000D03*
X4293700Y823670D03*
X4300000Y2448000D03*
X4305000Y1380000D03*
X4370000Y1523704D03*
X4393700Y830080D03*
X4410000Y2708000D03*
X4448000Y3188000D03*
X4455000Y2094000D03*
X4480000Y2631000D03*
X4488624Y914528D03*
X4505000Y2913000D03*
X4514000Y2060000D03*
X4520000Y1618000D03*
X4532000Y2649000D03*
X4550000Y1720000D03*
Y2485000D03*
X4566000Y779000D03*
X4581000Y1932000D03*
Y2060000D03*
X4588000Y1470000D03*
X4591676Y865000D03*
X4610000Y530000D03*
X4627494Y2152494D03*
X4633000Y3508050D03*
X4660000Y605000D03*
Y2422000D03*
X4695000Y2973000D03*
X4712000Y1686238D03*
X4717000Y2113000D03*
X4718000Y2300000D03*
X4719000Y1981000D03*
X4759000Y2463000D03*
X4763000Y2896000D03*
X4765000Y470000D03*
X4789000Y1911000D03*
X4810000Y2570000D03*
X4832000Y2196000D03*
X4850500Y3099500D03*
X5054000Y2319000D03*
X5089000Y2090000D03*
X5093000Y3286000D03*
X5095000Y3020000D03*
X5099000Y2155000D03*
X5100000Y3203000D03*
X5111000Y1319000D03*
X5160000Y2775000D03*
X5165000Y680000D03*
X5170000Y2635000D03*
X5187000Y2410000D03*
X5205000Y1665000D03*
X5206000Y626000D03*
X5275548Y2896548D03*
X5308000Y2273000D03*
X5341000Y3270000D03*
X5350000Y1010000D03*
Y1070000D03*
X5355000Y895000D03*
X5360000Y2536000D03*
X5379000Y2280000D03*
X5380000Y1890000D03*
X5394000Y1825000D03*
X5413000Y2473000D03*
X5427000Y2653000D03*
X5450000Y2181000D03*
X5454000Y2769000D03*
X5470000Y1430000D03*
X5508400Y1626600D03*
X5518000Y3110000D03*
X5544000Y2881000D03*
X5561762Y2790238D03*
X5571000Y1459000D03*
X5590000Y1085000D03*
Y2310000D03*
X5600000Y2155000D03*
Y3135000D03*
X5607000Y3304000D03*
X5615000Y2705000D03*
X5620000Y3080000D03*
X5635000Y1045000D03*
X5675000Y3100000D03*
X5680000Y2570000D03*
X5685000Y859000D03*
X5720000Y3057000D03*
X5735000Y945000D03*
Y3115000D03*
X5739656Y1602992D03*
X5759416Y2150000D03*
X5790000Y2060000D03*
X5820000Y2915000D03*
Y3290000D03*
X5822787Y2496213D03*
X5825000Y759000D03*
X5853000Y1885000D03*
X5860000Y2160000D03*
X5865000Y2065000D03*
X5909000Y1277000D03*
X6005000Y2044000D03*
X6021000Y1116000D03*
X6077000Y1080000D03*
X6086000Y3129000D03*
X6093762Y2309762D03*
X6093992Y659000D03*
X6109000Y2381000D03*
X6117112Y1641000D03*
X6129000Y2615000D03*
X6160000Y2084000D03*
Y3135000D03*
X6170000Y2400000D03*
X6195000Y2165000D03*
X6199000Y509000D03*
X6220000Y3135000D03*
X6229000Y2382000D03*
X6232412Y2120000D03*
X6237000Y2619000D03*
X6240000Y3290000D03*
X6247156Y2307156D03*
X6280000Y3135000D03*
X6323296Y2146566D03*
X6375000Y3045000D03*
X6380000Y3165000D03*
X6384000Y2182000D03*
X6438000Y2583000D03*
X6480610Y2386390D03*
X6535000Y2570000D03*
X6552500Y1688500D03*
X6611000Y2322000D03*
X6625000Y2868000D03*
X6628000Y3588000D03*
X6699874Y3057874D03*
X6710000Y2210000D03*
X6731000Y2895908D03*
X6739000Y3363000D03*
X6785000Y3055000D03*
Y3115000D03*
X2738700Y3373700D03*
X2783700Y3273700D03*
X2828700Y3373700D03*
X2873700Y3273700D03*
Y3473700D03*
X2918700Y3373700D03*
X2963700Y3273700D03*
Y3473700D03*
X3008700Y3373700D03*
X3053700Y3273700D03*
Y3473700D03*
X3098700Y3373700D03*
X3143700Y3273700D03*
Y3473700D03*
X2783700D03*
X5941890Y1349922D03*
Y1949922D03*
X5996418Y1238110D03*
Y1838110D03*
X6050944Y1349922D03*
Y1949922D03*
X6105472Y1238110D03*
Y1838110D03*
X6160000Y1349922D03*
Y1949922D03*
X6214528Y1238110D03*
Y1838110D03*
X6269056Y1349922D03*
Y1949922D03*
X6323582Y1238110D03*
Y1838110D03*
X6378110Y1349922D03*
Y1949922D03*
X5921300Y508700D03*
Y608700D03*
Y708700D03*
Y808700D03*
Y908700D03*
X6521300Y508700D03*
Y608700D03*
Y708700D03*
Y808700D03*
Y908700D03*
X1770000Y1915000D03*
D11*
X897700Y2982700D03*
X1053700Y2492700D03*
X1077700Y2915700D03*
X1097700Y3247700D03*
X1145700Y3093700D03*
D12*
X533701Y3093701D03*
X793701D03*
X1053701D03*
X1160000Y1740000D03*
Y1840000D03*
Y1940000D03*
Y2040000D03*
X1293650Y1069882D03*
Y1169882D03*
Y1269882D03*
Y1369882D03*
Y1469882D03*
Y1569882D03*
Y1669882D03*
Y1769882D03*
Y1869882D03*
Y1969882D03*
Y2069882D03*
Y2169882D03*
Y2269882D03*
Y2369882D03*
Y2469882D03*
Y2569882D03*
Y2669882D03*
Y2769882D03*
Y2869882D03*
Y2969882D03*
X1313701Y3093701D03*
X1393650Y1069882D03*
Y1169882D03*
Y1269882D03*
Y1369882D03*
Y1469882D03*
Y1569882D03*
Y1669882D03*
Y1769882D03*
Y1869882D03*
Y1969882D03*
Y2069882D03*
Y2169882D03*
Y2269882D03*
Y2369882D03*
Y2469882D03*
Y2569882D03*
Y2669882D03*
Y2769882D03*
Y2869882D03*
Y2969882D03*
X1573701Y2413701D03*
X1793701Y568748D03*
Y668748D03*
X1893701Y568748D03*
Y668748D03*
X1993701Y568748D03*
Y668748D03*
X2033700Y2373700D03*
X2093701Y568748D03*
Y668748D03*
X2133700Y2373700D03*
X2193701Y568748D03*
Y668748D03*
X2253700Y2757638D03*
Y2949764D03*
X2293701Y568748D03*
Y668748D03*
X2393701Y568748D03*
Y668748D03*
X2493701Y568748D03*
Y668748D03*
X2538700Y2493700D03*
Y2873700D03*
X2593701Y568748D03*
Y668748D03*
X2688700Y2493700D03*
Y2873700D03*
X2693701Y568748D03*
Y668748D03*
X2793701Y568748D03*
Y668748D03*
X2893701Y568748D03*
Y668748D03*
X2993701Y568748D03*
Y668748D03*
X3093701Y568748D03*
Y668748D03*
X3173700Y933700D03*
Y1433700D03*
X3193701Y568748D03*
Y668748D03*
X3200000Y1860000D03*
Y1960000D03*
Y2340000D03*
Y2440000D03*
X3273700Y933700D03*
Y1433700D03*
X3293701Y568748D03*
Y668748D03*
X3300000Y1860000D03*
Y1960000D03*
Y2340000D03*
Y2440000D03*
X3373700Y933700D03*
Y1433700D03*
X3393701Y568748D03*
Y668748D03*
X3400000Y1860000D03*
Y1960000D03*
Y2340000D03*
Y2440000D03*
X3473700Y933700D03*
Y1433700D03*
X3493701Y568748D03*
Y668748D03*
X3500000Y1860000D03*
Y1960000D03*
Y2340000D03*
Y2440000D03*
X3593701Y568748D03*
Y668748D03*
X3600000Y1860000D03*
Y1960000D03*
Y2340000D03*
Y2440000D03*
X3693700Y2853700D03*
Y2953700D03*
Y3053700D03*
X3693701Y568748D03*
Y668748D03*
X3886929Y865669D03*
Y944409D03*
Y1023150D03*
Y1101890D03*
Y1180630D03*
Y1259370D03*
Y1338110D03*
Y1416850D03*
Y1495591D03*
Y1574331D03*
X4093701Y568748D03*
Y668748D03*
Y3368752D03*
Y3468752D03*
X4153700Y2993700D03*
Y3093700D03*
X4160000Y2260000D03*
Y2360000D03*
X4193701Y568748D03*
Y668748D03*
Y3368752D03*
Y3468752D03*
X4253700Y2993700D03*
Y3093700D03*
X4260000Y2260000D03*
Y2360000D03*
X4293701Y568748D03*
Y668748D03*
Y3368752D03*
Y3468752D03*
X4353700Y2993700D03*
Y3093700D03*
X4360000Y2260000D03*
Y2360000D03*
X4393701Y568748D03*
Y668748D03*
Y3368752D03*
Y3468752D03*
X4453700Y2993700D03*
Y3093700D03*
X4460000Y2260000D03*
Y2360000D03*
X4493701Y568748D03*
Y668748D03*
Y3368752D03*
Y3468752D03*
X4553700Y2993700D03*
Y3093700D03*
X4560000Y2260000D03*
Y2360000D03*
X4753071Y865669D03*
Y944409D03*
Y1023150D03*
Y1101890D03*
Y1180630D03*
Y1259370D03*
Y1338110D03*
Y1416850D03*
Y1495591D03*
Y1574331D03*
X4893661Y1068701D03*
Y1168701D03*
Y1268701D03*
Y1368701D03*
Y1468701D03*
Y1568701D03*
Y1668701D03*
Y1768701D03*
Y1868701D03*
Y1968701D03*
Y2068701D03*
Y2168701D03*
Y2268701D03*
Y2368701D03*
Y2468701D03*
Y2568701D03*
Y2668701D03*
Y2768701D03*
Y2868701D03*
Y2968701D03*
X4993661Y1068701D03*
Y1168701D03*
Y1268701D03*
Y1368701D03*
Y1468701D03*
Y1568701D03*
Y1668701D03*
Y1768701D03*
Y1868701D03*
Y1968701D03*
Y2068701D03*
Y2168701D03*
Y2268701D03*
Y2368701D03*
Y2468701D03*
Y2568701D03*
Y2668701D03*
Y2768701D03*
Y2868701D03*
Y2968701D03*
X5360000Y2660000D03*
Y2760000D03*
Y2860000D03*
Y3360000D03*
Y3460000D03*
Y3560000D03*
X5740000Y2700000D03*
Y2800000D03*
Y3400000D03*
Y3500000D03*
X5840000Y2700000D03*
Y2800000D03*
Y3400000D03*
Y3500000D03*
X5940000Y2700000D03*
Y2800000D03*
Y3400000D03*
Y3500000D03*
X6040000Y2700000D03*
Y2800000D03*
Y3400000D03*
Y3500000D03*
X6140000Y2700000D03*
Y2800000D03*
Y3400000D03*
Y3500000D03*
X6240000Y2700000D03*
Y2800000D03*
Y3400000D03*
Y3500000D03*
X6340000Y2700000D03*
Y2800000D03*
Y3400000D03*
Y3500000D03*
X6440000Y2700000D03*
Y2800000D03*
Y3400000D03*
Y3500000D03*
X6540000Y2700000D03*
Y2800000D03*
Y3400000D03*
Y3500000D03*
X6640000Y2700000D03*
Y2800000D03*
Y3400000D03*
Y3500000D03*
X3063700Y2783700D03*
Y3083700D03*
X3163700Y2783700D03*
Y3083700D03*
X3263700Y2783700D03*
Y3083700D03*
X3363700Y2783700D03*
Y3083700D03*
D13*
X1893700Y1793700D03*
Y2193700D03*
D14*
X1593700Y3413700D03*
X1793700D03*
X1993700D03*
X2193700D03*
D15*
X671652Y3450550D03*
X793700Y3253700D03*
D16*
X915748Y3450550D03*
X5668070Y1294016D03*
Y1894016D03*
X6651930Y1294016D03*
Y1894016D03*
X2461700Y3373700D03*
X3445700D03*
%LPD*%
M02*