%FSLAX26Y26*%
%MOMM*%
%ADD10C,0.500000*%
%ADD11C,0.900000*%
%ADD12C,1*%
%ADD13C,1.200000*%
%ADD14C,3*%
%ADD15C,3.200000*%
%ADD16C,3.500000*%
%SRX1Y1I0.000000J0.000000*%
G04 layer name: drill*
%LPD*%
D10*
X13843000Y61137800D03*
X26314400Y81280000D03*
X29210000Y28600400D03*
X29475445Y63968645D03*
X30378400Y34264600D03*
X31724600Y25501600D03*
X34112200Y46253400D03*
X34163000Y33502600D03*
X36576000Y36017200D03*
X37287200Y55397400D03*
X37642800Y57073800D03*
X38277800Y24587200D03*
X38354000Y58928000D03*
X38430200Y15062200D03*
X39192200Y12217400D03*
X39243000Y73939400D03*
X39497050Y53721050D03*
X40208200Y18897600D03*
X40259000Y90043000D03*
X40487600Y35712400D03*
X40563800Y43129200D03*
X40690800Y69977000D03*
X40792400Y54559200D03*
X40868600Y15087600D03*
X40970200Y72618600D03*
X41021000Y84302600D03*
X41275000Y79933800D03*
X41478200Y67564000D03*
X41630600Y12217400D03*
X42418000Y13868400D03*
X42519600Y31496000D03*
X42672000Y28702000D03*
X42849800Y33680400D03*
X42926000Y18669000D03*
X43027600Y23444200D03*
Y58521600D03*
X43053000Y56845200D03*
X43103800Y21209000D03*
X43147275Y25683970D03*
X43327575Y61696600D03*
X43459400Y43205400D03*
X44297600Y60325000D03*
X45907095Y45955765D03*
X46228000Y58318400D03*
X46329600Y71450200D03*
X46380400Y67386200D03*
X46634400Y69824600D03*
X46710600Y18718020D03*
X46786800Y74269600D03*
Y75971400D03*
X47726600Y22707600D03*
X48099980Y48590200D03*
X48107600Y89001600D03*
X48564800Y67386200D03*
X48717200Y25933400D03*
X49225200Y18719800D03*
X50012600Y47421800D03*
X50038000Y20574000D03*
X50419000Y49733200D03*
X50698605Y40640000D03*
X50876200Y33528000D03*
Y45440600D03*
X50927000Y29743400D03*
X50952400Y78740000D03*
X51638200Y35610800D03*
X52705000Y37338000D03*
X53213000Y34137600D03*
X53771800Y49733200D03*
X56718200Y49936400D03*
Y57378600D03*
X57023000Y26670000D03*
X57226200Y90093800D03*
X58013600Y46253400D03*
X58267600Y53848000D03*
X58343800Y37007800D03*
X58369200Y33807400D03*
X59540750Y25854050D03*
X59766200Y28041600D03*
X60198000Y30784800D03*
X60985400Y37007800D03*
X62153800Y53619400D03*
X62585600Y64592200D03*
X62611000Y20066000D03*
X62636400Y67741800D03*
X62738000Y25984200D03*
X62788800Y48183800D03*
X63068200Y74244200D03*
X63169800Y40030400D03*
X63881000Y44983400D03*
X64058800Y21336000D03*
X64591995Y55880000D03*
X64973200Y30556200D03*
X65913000Y19050000D03*
X67005200Y89255600D03*
X67310000Y41579800D03*
X67386200Y25628600D03*
X67818000Y51917600D03*
X68053995Y48580065D03*
X69138800Y46862795D03*
X69646800Y12979400D03*
X71044005Y37896800D03*
X72009000Y50190400D03*
X72669400Y38938200D03*
X72771000Y52476400D03*
X73735995Y48260000D03*
X75096420Y19162980D03*
X75514200Y53975000D03*
X75692000Y21691600D03*
X78232000Y36398200D03*
X78333600Y23495000D03*
X78486000Y33934400D03*
X78587600Y18796000D03*
X79400400Y57099200D03*
X79451200Y39979600D03*
Y91490800D03*
X81788000Y28600400D03*
X82118200Y90297000D03*
X82372200Y39192200D03*
X82575400Y87985600D03*
X82727800Y33401000D03*
X84074000Y67487800D03*
X84277200Y47980600D03*
X85572600Y40081200D03*
X86182200Y33477200D03*
X87096600Y80949800D03*
X88442800Y71399400D03*
X90068400Y18669000D03*
X90576400Y77012800D03*
X92938600Y29768800D03*
X94335600Y40335200D03*
X95046800Y60909200D03*
X95935800Y56210200D03*
X96215200Y21031200D03*
X96875600Y14681200D03*
X97815400Y18364200D03*
X98856800Y47294800D03*
X99999800Y80772000D03*
X102108000Y80086200D03*
X103403755Y49936400D03*
Y58470800D03*
X104216200Y42519600D03*
X104267000Y21539200D03*
X104419400Y45135800D03*
X105029000Y30886400D03*
X105257600Y34442400D03*
X105892600Y21539200D03*
X107264200Y41630600D03*
X107365800Y40081200D03*
X108153200Y52654200D03*
X109194600Y66471800D03*
X109651800Y62153800D03*
X109677200Y29591000D03*
X110210600Y48539400D03*
X110363000Y55092600D03*
X110642400Y20421600D03*
X111048800Y65074800D03*
X111353600Y37261800D03*
X112928400Y40589200D03*
X113360200Y22047200D03*
X113614200Y32816800D03*
X114554000Y61569600D03*
X115138200Y22072600D03*
X115697000Y50825400D03*
X116001800Y52730400D03*
X116128800Y14884400D03*
X116154200Y44704000D03*
X116179600Y46253400D03*
X116281200Y63474600D03*
X116306600Y73177400D03*
X116763800Y37592000D03*
X117170200Y27889200D03*
X117856000Y48514000D03*
X118313200Y15392400D03*
X118745000Y54813200D03*
X119041265Y20032980D03*
X119989600Y44983400D03*
X120065800Y47650400D03*
X120419165Y63172035D03*
X120700800Y12446000D03*
X121234200Y53822600D03*
Y57759600D03*
X121243750Y59655050D03*
X121585380Y47638615D03*
X121640600Y51612800D03*
X121666000Y45923200D03*
X122021600Y71780400D03*
X122377200Y44196000D03*
X122402600Y28956000D03*
X122453400Y68097400D03*
X125399800Y78663800D03*
X128295400Y28422600D03*
X128422400Y51028600D03*
X128524000Y46736000D03*
X128625600Y19532600D03*
X128879600Y35839400D03*
X129361995Y83058000D03*
X130556000Y54533800D03*
X130632200Y43053000D03*
X130683000Y62560200D03*
X130810000Y26416000D03*
X131241800Y71678800D03*
X131318000Y69062600D03*
X132257800Y53263800D03*
X132791200Y64566800D03*
X133528005Y34099400D03*
X134213600Y76606400D03*
Y83210400D03*
X134645400Y65786000D03*
X134772400Y75311000D03*
X135178800Y49657000D03*
X136194800Y27660600D03*
X136321800Y23063200D03*
X136626600Y43078400D03*
X136652000Y29743400D03*
X136779000Y25349200D03*
X137210800Y64846200D03*
X137236200Y21894800D03*
X137363200Y49657000D03*
X139014200Y65659000D03*
X139547600Y58699400D03*
X139979400Y78257400D03*
X140436600Y33477200D03*
X140655650Y71242985D03*
X141046200Y36118800D03*
Y58674000D03*
X141554200Y73863200D03*
X141782800Y67894200D03*
X141835835Y70127165D03*
X142595600Y78282800D03*
X142646400Y24638000D03*
X142824200Y51333400D03*
X143052800Y85191600D03*
X143281400Y52959000D03*
X143357600Y61112400D03*
X143510000Y58572400D03*
X143840200Y44043600D03*
X145161000Y59080400D03*
X145313400Y83743800D03*
X145542000Y13614400D03*
Y15697200D03*
X146126200Y60198000D03*
X146735800Y37769800D03*
X146964400Y17703800D03*
Y20650200D03*
X146989800Y24892000D03*
X147142200Y42291000D03*
X147269200Y39268400D03*
X147523200Y67056000D03*
X147599400Y62966600D03*
X147828000Y73863200D03*
X147853400Y56896000D03*
X147904200Y11938000D03*
X148251365Y60147200D03*
X148945600Y40030400D03*
X149098000Y37846000D03*
X149453600Y90906600D03*
X149707600Y43307000D03*
X150139400Y25171400D03*
X150342600Y60807600D03*
X150444200Y53848000D03*
X151028400Y45008800D03*
X151460200Y83667600D03*
X151714200Y37084000D03*
X153238200Y53492400D03*
X155168600Y25374600D03*
X155194000Y77597000D03*
X156319015Y14444980D03*
X157734000Y77724000D03*
X157835600Y59563000D03*
X158292800Y57119925D03*
X159461200Y54370425D03*
X159664400Y66243200D03*
X159766000Y61036200D03*
X160832800Y58801000D03*
X161061400Y84023200D03*
X161950400Y66243200D03*
X162306000Y59156600D03*
X162382200Y43637200D03*
X164515800Y38963600D03*
X164744400Y65227200D03*
X165506400Y41935400D03*
X165963600Y79679800D03*
X166370000Y73812400D03*
X166751000Y54660800D03*
X167081200Y59588400D03*
X167614600Y41935400D03*
X167741600Y44373800D03*
X168656000Y73355200D03*
X169138600Y77952600D03*
X170484800Y83616800D03*
X170510200Y77520800D03*
X170713400Y53848000D03*
X171272200Y72136000D03*
X172034200Y78943200D03*
X53924200Y40640000D03*
X150469600Y30784800D03*
X151231600Y46507400D03*
X154813000Y42773600D03*
X158191200Y35128200D03*
X22801580Y75760580D03*
X26763980Y63314580D03*
X27373580Y74058780D03*
X27881580Y82491580D03*
X29100780Y78579980D03*
D11*
X13555980D03*
X20159980D03*
X26763980D03*
X29464000Y44196000D03*
Y46736000D03*
Y49276000D03*
Y51816000D03*
X32858710Y27175005D03*
Y29715005D03*
Y32255005D03*
Y34795005D03*
Y37335005D03*
Y39875005D03*
Y42415005D03*
Y44955005D03*
Y47495005D03*
Y50035005D03*
Y52575005D03*
Y55115005D03*
Y57655005D03*
Y60195005D03*
Y62735005D03*
Y65275005D03*
Y67815005D03*
Y70355005D03*
Y72895005D03*
Y75435005D03*
X33367980Y78579980D03*
X35398710Y27175005D03*
Y29715005D03*
Y32255005D03*
Y34795005D03*
Y37335005D03*
Y39875005D03*
Y42415005D03*
Y44955005D03*
Y47495005D03*
Y50035005D03*
Y52575005D03*
Y55115005D03*
Y57655005D03*
Y60195005D03*
Y62735005D03*
Y65275005D03*
Y67815005D03*
Y70355005D03*
Y72895005D03*
Y75435005D03*
X39971980Y61307980D03*
X45559980Y14446200D03*
Y16986200D03*
X48099980Y14446200D03*
Y16986200D03*
X50639980Y14446200D03*
Y16986200D03*
X51655980Y60291980D03*
X53179980Y14446200D03*
Y16986200D03*
X54195980Y60291980D03*
X55719980Y14446200D03*
Y16986200D03*
X57243980Y70044005D03*
Y74924005D03*
X58259980Y14446200D03*
Y16986200D03*
X60799980Y14446200D03*
Y16986200D03*
X63339980Y14446200D03*
Y16986200D03*
X64482980Y63339980D03*
Y72991980D03*
X65879980Y14446200D03*
Y16986200D03*
X68292980Y63339980D03*
Y72991980D03*
X68419980Y14446200D03*
Y16986200D03*
X70959980Y14446200D03*
Y16986200D03*
X73499980Y14446200D03*
Y16986200D03*
X76039980Y14446200D03*
Y16986200D03*
X76327000Y37084000D03*
Y44196000D03*
X78579980Y14446200D03*
Y16986200D03*
X80137000Y37084000D03*
Y44196000D03*
X81119980Y14446200D03*
Y16986200D03*
X81280000Y51816000D03*
Y54356000D03*
Y62484000D03*
Y65024000D03*
X83659980Y14446200D03*
Y16986200D03*
X83820000Y51816000D03*
Y54356000D03*
Y62484000D03*
Y65024000D03*
X86199980Y14446200D03*
Y16986200D03*
X86360000Y51816000D03*
Y54356000D03*
Y62484000D03*
Y65024000D03*
X88739980Y14446200D03*
Y16986200D03*
X88900000Y51816000D03*
Y54356000D03*
Y62484000D03*
Y65024000D03*
X91279980Y14446200D03*
Y16986200D03*
X91440000Y51816000D03*
Y54356000D03*
Y62484000D03*
Y65024000D03*
X92456000Y36576000D03*
Y39116000D03*
Y41656000D03*
Y44196000D03*
X93819980Y14446200D03*
Y16986200D03*
X93980000Y71628000D03*
Y74168000D03*
Y76708000D03*
X96012000Y81788000D03*
Y84328000D03*
Y86868000D03*
Y89408000D03*
X98728020Y21988020D03*
Y23988015D03*
Y25988010D03*
Y27988005D03*
Y29988000D03*
Y31988000D03*
Y33987995D03*
Y35987990D03*
Y37987985D03*
Y39987980D03*
X103979980Y14446200D03*
Y16986200D03*
Y85566300D03*
Y88106300D03*
X105503980Y76039980D03*
Y78579980D03*
X105664000Y57404000D03*
Y59944000D03*
X106519980Y14446200D03*
Y16986200D03*
Y85566300D03*
Y88106300D03*
X108043980Y76039980D03*
Y78579980D03*
X108204000Y57404000D03*
Y59944000D03*
X109059980Y14446200D03*
Y16986200D03*
Y85566300D03*
Y88106300D03*
X110583980Y76039980D03*
Y78579980D03*
X110744000Y57404000D03*
Y59944000D03*
X111599980Y14446200D03*
Y16986200D03*
Y85566300D03*
Y88106300D03*
X113123980Y76039980D03*
Y78579980D03*
X113284000Y57404000D03*
Y59944000D03*
X114139980Y14446200D03*
Y16986200D03*
Y85566300D03*
Y88106300D03*
X115663980Y76039980D03*
Y78579980D03*
X115824000Y57404000D03*
Y59944000D03*
X120727980Y21988020D03*
Y23988015D03*
Y25988010D03*
Y27988005D03*
Y29988000D03*
Y31988000D03*
Y33987995D03*
Y35987990D03*
Y37987985D03*
Y39987980D03*
X124299015Y27144980D03*
Y29684980D03*
Y32224980D03*
Y34764980D03*
Y37304980D03*
Y39844980D03*
Y42384980D03*
Y44924980D03*
Y47464980D03*
Y50004980D03*
Y52544980D03*
Y55084980D03*
Y57624980D03*
Y60164980D03*
Y62704980D03*
Y65244980D03*
Y67784980D03*
Y70324980D03*
Y72864980D03*
Y75404980D03*
X126839015Y27144980D03*
Y29684980D03*
Y32224980D03*
Y34764980D03*
Y37304980D03*
Y39844980D03*
Y42384980D03*
Y44924980D03*
Y47464980D03*
Y50004980D03*
Y52544980D03*
Y55084980D03*
Y57624980D03*
Y60164980D03*
Y62704980D03*
Y65244980D03*
Y67784980D03*
Y70324980D03*
Y72864980D03*
Y75404980D03*
X136144000Y67564000D03*
Y70104000D03*
Y72644000D03*
Y85344000D03*
Y87884000D03*
Y90424000D03*
X145796000Y68580000D03*
Y71120000D03*
Y86360000D03*
Y88900000D03*
X148336000Y68580000D03*
Y71120000D03*
Y86360000D03*
Y88900000D03*
X150876000Y68580000D03*
Y71120000D03*
Y86360000D03*
Y88900000D03*
X153416000Y68580000D03*
Y71120000D03*
Y86360000D03*
Y88900000D03*
X155956000Y68580000D03*
Y71120000D03*
Y86360000D03*
Y88900000D03*
X158496000Y68580000D03*
Y71120000D03*
Y86360000D03*
Y88900000D03*
X161036000Y68580000D03*
Y71120000D03*
Y86360000D03*
Y88900000D03*
X163576000Y68580000D03*
Y71120000D03*
Y86360000D03*
Y88900000D03*
X166116000Y68580000D03*
Y71120000D03*
Y86360000D03*
Y88900000D03*
X168656000Y68580000D03*
Y71120000D03*
Y86360000D03*
Y88900000D03*
X77817980Y70705980D03*
Y78325980D03*
X80357980Y70705980D03*
Y78325980D03*
X82897980Y70705980D03*
Y78325980D03*
X85437980Y70705980D03*
Y78325980D03*
X150655020Y11904980D03*
Y14444980D03*
Y16984980D03*
Y19524980D03*
Y22064980D03*
X165895020Y11904980D03*
Y14444980D03*
Y16984980D03*
Y19524980D03*
Y22064980D03*
D12*
X48099980Y45559980D03*
Y55719980D03*
X69562980Y85691980D03*
X70705980Y83151980D03*
X71848980Y85691980D03*
X72991980Y83151980D03*
Y88231980D03*
X74134980Y85691980D03*
X75277980Y83151980D03*
Y88231980D03*
X76420980Y85691980D03*
X77563980Y83151980D03*
Y88231980D03*
X78706980Y85691980D03*
X79849980Y83151980D03*
Y88231980D03*
X70705980D03*
X152448005Y32764020D03*
Y50036020D03*
X153833015Y29923995D03*
Y47195995D03*
X155217980Y32764020D03*
Y50036020D03*
X156602990Y29923995D03*
Y47195995D03*
X157988000Y32764020D03*
Y50036020D03*
X159373010Y29923995D03*
Y47195995D03*
X160758020Y32764020D03*
Y50036020D03*
X162142985Y29923995D03*
Y47195995D03*
X163527995Y32764020D03*
Y50036020D03*
D13*
X40479980Y86707980D03*
X45559980D03*
X50639980D03*
X55719980D03*
D14*
X17059960Y87643970D03*
X20159980Y82643980D03*
D15*
X62527180Y85691980D03*
X87520780D03*
X145492980Y31344005D03*
Y48616005D03*
X170483020Y31344005D03*
Y48616005D03*
D16*
X23260000Y87643970D03*
%LPD*%
M02*