%FSLAX25Y25*%
%MOIN*%
%IPPOS*%
%ADD10C,0.03543*%
%ADD11C,0.02362*%
%SRX1Y1I0.00000J0.00000*%
G04 layer name: drill*
%LPD*%
D10*
X120000Y132000D03*
Y142000D03*
Y152000D03*
Y162000D03*
Y172000D03*
Y182000D03*
Y192000D03*
Y202000D03*
Y212000D03*
Y222000D03*
Y284000D03*
Y294000D03*
Y304000D03*
Y314000D03*
Y324000D03*
Y334000D03*
Y344000D03*
Y354000D03*
Y364000D03*
Y374000D03*
X130000Y132000D03*
Y142000D03*
Y152000D03*
Y162000D03*
Y172000D03*
Y182000D03*
Y192000D03*
Y202000D03*
Y212000D03*
Y222000D03*
Y284000D03*
Y294000D03*
Y304000D03*
Y314000D03*
Y324000D03*
Y334000D03*
Y344000D03*
Y354000D03*
Y364000D03*
Y374000D03*
X168000Y248000D03*
Y258000D03*
Y268000D03*
X159000Y140000D03*
Y150000D03*
Y160000D03*
Y170000D03*
Y180000D03*
Y190000D03*
Y200000D03*
Y210000D03*
Y220000D03*
Y300000D03*
Y310000D03*
Y320000D03*
Y330000D03*
Y340000D03*
Y350000D03*
Y360000D03*
Y370000D03*
Y380000D03*
X189000Y140000D03*
Y150000D03*
Y160000D03*
Y170000D03*
Y180000D03*
Y190000D03*
Y200000D03*
Y210000D03*
Y220000D03*
Y300000D03*
Y310000D03*
Y320000D03*
Y330000D03*
Y340000D03*
Y350000D03*
Y360000D03*
Y370000D03*
Y380000D03*
X170000Y116000D03*
X185000D03*
D11*
X109100Y289100D03*
X115100Y309000D03*
X120000Y268000D03*
X130000Y399000D03*
X133000Y242823D03*
X141500Y341200D03*
X141800Y301200D03*
Y313100D03*
X149700Y323400D03*
X149800Y192100D03*
X167500Y345000D03*
X167800Y280600D03*
X172900Y252900D03*
X175600Y310500D03*
X176400Y190000D03*
X180900Y224700D03*
X185300Y288600D03*
X197500Y145000D03*
X200000Y375000D03*
X220174Y149875D03*
X220299Y114000D03*
Y132000D03*
Y168000D03*
Y186000D03*
Y204000D03*
Y222000D03*
Y240000D03*
Y258000D03*
Y276000D03*
Y294000D03*
Y312000D03*
Y330000D03*
Y348000D03*
Y366000D03*
Y384000D03*
%LPD*%
M02*