%FSLAX26Y26*%
%MOIN*%
%IPPOS*%
%ADD10C,0.12598*%
%ADD11C,0.03543*%
%ADD12C,0.04331*%
%ADD13C,0.02362*%
%SRX1Y1I0.000000J0.000000*%
%LNdrill*%
%LPD*%
D10*
X1170000Y2015000D03*
X4700000Y1845000D03*
D11*
X1200000Y2200000D03*
Y2300000D03*
Y2400000D03*
Y2500000D03*
X1500000Y2200000D03*
Y2300000D03*
Y2400000D03*
Y2500000D03*
X1650000Y2200000D03*
Y2300000D03*
Y2400000D03*
Y2500000D03*
X1950000Y2200000D03*
Y2300000D03*
Y2400000D03*
Y2500000D03*
X2100000Y2200000D03*
Y2300000D03*
Y2400000D03*
Y2500000D03*
X2400000Y2200000D03*
Y2300000D03*
Y2400000D03*
Y2500000D03*
X2550000Y2200000D03*
Y2300000D03*
Y2400000D03*
Y2500000D03*
X2850000Y2200000D03*
Y2300000D03*
Y2400000D03*
Y2500000D03*
X3000000Y2200000D03*
Y2300000D03*
Y2400000D03*
Y2500000D03*
X3300000Y2200000D03*
Y2300000D03*
Y2400000D03*
Y2500000D03*
X3450000Y2200000D03*
Y2300000D03*
Y2400000D03*
Y2500000D03*
X3750000Y2200000D03*
Y2300000D03*
Y2400000D03*
Y2500000D03*
X3900000Y2200000D03*
Y2300000D03*
Y2400000D03*
Y2500000D03*
X4200000Y2200000D03*
Y2300000D03*
Y2400000D03*
Y2500000D03*
X4350000Y2200000D03*
Y2300000D03*
Y2400000D03*
Y2500000D03*
X4650000Y2200000D03*
Y2300000D03*
Y2400000D03*
Y2500000D03*
X2225000Y1755000D03*
Y1990000D03*
X2325000Y1755000D03*
Y1990000D03*
X2425000Y1755000D03*
Y1990000D03*
X2525000Y1755000D03*
Y1990000D03*
X2625000Y1755000D03*
Y1990000D03*
X2725000Y1755000D03*
Y1990000D03*
X2825000Y1755000D03*
Y1990000D03*
X2925000Y1755000D03*
Y1990000D03*
X3025000Y1755000D03*
Y1990000D03*
X3585000Y1775000D03*
Y1875000D03*
Y1975000D03*
X3685000Y1775000D03*
Y1875000D03*
Y1975000D03*
X4100000Y1350000D03*
Y1450000D03*
X4200000Y1350000D03*
Y1450000D03*
X4300000Y1350000D03*
Y1450000D03*
X4400000Y1350000D03*
Y1450000D03*
X4485000Y1755000D03*
Y1855000D03*
Y1955000D03*
X4500000Y1350000D03*
Y1450000D03*
D12*
X1250000Y2850000D03*
X1400000D03*
X1700000D03*
X1850000D03*
X2150000D03*
X2300000D03*
X2600000D03*
X2750000D03*
X3050000D03*
X3200000D03*
X3500000D03*
X3650000D03*
X3950000D03*
X4100000D03*
X4400000D03*
X4550000D03*
D13*
X1150000Y1700000D03*
Y1850000D03*
X1151000Y2349000D03*
X1250000Y1750000D03*
Y1850000D03*
X1284000Y2167000D03*
X1328000Y2549000D03*
X1382000Y2139000D03*
X1450000Y1675000D03*
Y1850000D03*
X1475000Y2075000D03*
X1560000Y2100000D03*
X1601000Y2598000D03*
X1700000Y1825000D03*
X1703000Y2598000D03*
X1709000Y1924000D03*
X1761000Y2103000D03*
X1766000Y2631000D03*
X1812000Y2441000D03*
X1851000Y2151000D03*
X1910000Y1840000D03*
X1911000Y2008000D03*
X1927000Y2099000D03*
X1961000Y1674000D03*
X1990000Y2132000D03*
X2059000Y2675000D03*
X2125000Y2075000D03*
X2130000Y2000000D03*
X2149000Y1894000D03*
X2226000Y2066000D03*
X2256000Y1904000D03*
X2332000Y2197000D03*
X2417000Y2128000D03*
X2498000Y2249000D03*
Y2669008D03*
X2685000Y2905000D03*
X2725000Y2433000D03*
X2775000Y2049000D03*
X2826000Y2657102D03*
X2874000Y1869000D03*
X2901000Y2667000D03*
X3067000Y2151000D03*
X3251770Y2690000D03*
X3254000Y1870000D03*
X3276000Y2020000D03*
X3318000Y1973000D03*
X3349000Y1795000D03*
X3499000Y1971000D03*
X3520000Y2327000D03*
X3623000Y1378000D03*
X3665000Y1627000D03*
X3783000Y1680000D03*
X3850992Y2727008D03*
X3868000Y1294000D03*
X3973000Y2190000D03*
X3981000Y1500000D03*
X4003000Y1325000D03*
X4262000Y2142000D03*
X4292000Y2561000D03*
X4459000Y2962000D03*
%LPD*%
M02*