%FSLAX26Y26*%
%MOIN*%
%IPPOS*%
%ADD10C,0.12598*%
%ADD11C,0.03543*%
%ADD12C,0.03937*%
%ADD13C,0.02362*%
%SRX1Y1I0.000000J0.000000*%
%LNdrill*%
%LPD*%
D10*
X1150000Y1150000D03*
Y4600000D03*
X4200000Y1150000D03*
Y4600000D03*
D11*
X1200000Y2540000D03*
Y2940000D03*
Y3060000D03*
Y3460000D03*
X1300000Y2200000D03*
Y2400000D03*
X1400000Y2540000D03*
Y2940000D03*
Y3060000D03*
Y3460000D03*
X1420000Y3600000D03*
Y4000000D03*
X1600000Y2540000D03*
Y2940000D03*
Y3060000D03*
Y3460000D03*
X1700000Y2200000D03*
Y2400000D03*
X1800000Y2540000D03*
Y2940000D03*
Y3060000D03*
Y3460000D03*
X1820000Y3600000D03*
Y4000000D03*
X2000000Y2540000D03*
Y2940000D03*
Y3060000D03*
Y3460000D03*
X2100000Y2200000D03*
Y2400000D03*
X2200000Y2540000D03*
Y2940000D03*
Y3060000D03*
Y3460000D03*
X2220000Y3600000D03*
Y4000000D03*
X2360000Y1120000D03*
Y1220000D03*
X2400000Y2540000D03*
Y2940000D03*
Y3060000D03*
Y3460000D03*
X2460000Y1120000D03*
Y1220000D03*
X2500000Y2200000D03*
Y2400000D03*
X2560000Y1120000D03*
Y1220000D03*
X2600000Y2540000D03*
Y2940000D03*
Y3060000D03*
Y3460000D03*
X2620000Y3600000D03*
Y4000000D03*
X2660000Y1120000D03*
Y1220000D03*
X2760000Y1120000D03*
Y1220000D03*
X2800000Y2540000D03*
Y2940000D03*
Y3060000D03*
Y3460000D03*
X2900000Y2200000D03*
Y2400000D03*
X3000000Y2540000D03*
Y2940000D03*
Y3060000D03*
Y3460000D03*
X3020000Y3600000D03*
Y4000000D03*
X3200000Y2540000D03*
Y2940000D03*
Y3060000D03*
Y3460000D03*
X3300000Y2200000D03*
Y2400000D03*
X3400000Y2540000D03*
Y2940000D03*
Y3060000D03*
Y3460000D03*
X3420000Y3600000D03*
Y4000000D03*
X3600000Y2540000D03*
Y2940000D03*
Y3060000D03*
Y3460000D03*
X3700000Y2200000D03*
Y2400000D03*
X3800000Y2540000D03*
Y2940000D03*
Y3060000D03*
Y3460000D03*
X3820000Y3600000D03*
Y4000000D03*
X4000000Y2540000D03*
Y2940000D03*
Y3060000D03*
Y3460000D03*
X4100000Y2200000D03*
Y2400000D03*
X4200000Y2540000D03*
Y2940000D03*
Y3060000D03*
Y3460000D03*
X4220000Y3600000D03*
Y4000000D03*
X1210000Y1710000D03*
Y2010000D03*
X1310000Y1710000D03*
Y2010000D03*
X1610000Y1710000D03*
Y2010000D03*
X1710000Y1710000D03*
Y2010000D03*
X2010000Y1710000D03*
Y2010000D03*
X2110000Y1710000D03*
Y2010000D03*
X2410000Y1710000D03*
Y2010000D03*
X2510000Y1710000D03*
Y2010000D03*
X2790000Y1710000D03*
Y2010000D03*
X2890000Y1710000D03*
Y2010000D03*
X3210000Y1710000D03*
Y2010000D03*
X3310000Y1710000D03*
Y2010000D03*
X3610000Y1710000D03*
Y2010000D03*
X3710000Y1710000D03*
Y2010000D03*
X4010000Y1710000D03*
Y2010000D03*
X4110000Y1710000D03*
Y2010000D03*
D12*
X1220000Y3600000D03*
Y4200000D03*
X1400000Y4500000D03*
X1600000D03*
X1620000Y3600000D03*
Y4200000D03*
X1800000Y4500000D03*
X2000000D03*
X2020000Y3600000D03*
Y4200000D03*
X2200000Y4500000D03*
X2400000D03*
X2420000Y3600000D03*
Y4200000D03*
X2600000Y4500000D03*
X2800000D03*
X2820000Y3600000D03*
Y4200000D03*
X3000000Y4500000D03*
X3200000D03*
X3220000Y3600000D03*
Y4200000D03*
X3620000Y3600000D03*
Y4200000D03*
X3700000Y4500000D03*
X3900000D03*
X4020000Y3600000D03*
Y4200000D03*
D13*
X2025000Y1584000D03*
X2191000Y1507000D03*
X2866000Y1407000D03*
X2884000Y1248000D03*
X3530000Y1498000D03*
%LPD*%
M02*